<svg xmlns="http://www.w3.org/2000/svg" viewBox="0 0 960 600" width="960" height="600" role="img" aria-label="Raag Music Society cover image">
  <defs>
    <linearGradient id="bg" gradientTransform="rotate(34)">
      <stop offset="0%" stop-color="#901b4f"/>
      <stop offset="100%" stop-color="#390b1f"/>
    </linearGradient>
    <radialGradient id="glow" cx="50%" cy="50%" r="50%">
      <stop offset="0%" stop-color="#c66b93" stop-opacity="0.6"/>
      <stop offset="100%" stop-color="#c66b93" stop-opacity="0"/>
    </radialGradient>
    <linearGradient id="scrim" x1="0" y1="0" x2="0" y2="1">
      <stop offset="40%" stop-color="#000" stop-opacity="0"/>
      <stop offset="100%" stop-color="#000" stop-opacity="0.55"/>
    </linearGradient>
    <filter id="grain">
      <feTurbulence type="fractalNoise" baseFrequency="0.85" numOctaves="3" seed="441"/>
      <feColorMatrix type="saturate" values="0"/>
    </filter>
  </defs>
  <rect width="960" height="600" fill="url(#bg)"/>
  <ellipse cx="452" cy="129" rx="528" ry="390" fill="url(#glow)"/>
  <g><circle cx="162" cy="17" r="125" fill="none" stroke="#c66b93" stroke-width="1.9" opacity="0.13"/><circle cx="209" cy="524" r="139" fill="none" stroke="#c66b93" stroke-width="1.1" opacity="0.27"/><circle cx="148" cy="99" r="154" fill="none" stroke="#c66b93" stroke-width="3.6" opacity="0.29"/><circle cx="783" cy="196" r="106" fill="none" stroke="#c66b93" stroke-width="3.3" opacity="0.16"/><circle cx="90" cy="463" r="124" fill="none" stroke="#c66b93" stroke-width="3.9" opacity="0.36"/><circle cx="106" cy="579" r="96" fill="none" stroke="#c66b93" stroke-width="1.9" opacity="0.32"/><circle cx="854" cy="295" r="88" fill="none" stroke="#c66b93" stroke-width="3.2" opacity="0.25"/></g>
  <g transform="translate(505 66) scale(2.580) rotate(-4.4 100 100)">
    <g color="#000" opacity=".16" transform="translate(5 7)">
    <rect x="80" y="26" width="40" height="76" rx="20" fill="none" stroke="currentColor" stroke-width="8"/>
    <path d="M58 88c0 23 19 42 42 42s42-19 42-42" fill="none" stroke="currentColor" stroke-width="8" stroke-linecap="round"/>
    <path d="M100 130v34M74 164h52" stroke="currentColor" stroke-width="8" stroke-linecap="round"/>
    <circle cx="36" cy="150" r="13" fill="currentColor"/>
    <path d="M49 150V96l28-8v54" fill="none" stroke="currentColor" stroke-width="7" stroke-linejoin="round"/>
    <circle cx="164" cy="140" r="13" fill="currentColor"/></g>
    <g color="#FFFFFF" opacity=".22">
    <rect x="80" y="26" width="40" height="76" rx="20" fill="none" stroke="currentColor" stroke-width="8"/>
    <path d="M58 88c0 23 19 42 42 42s42-19 42-42" fill="none" stroke="currentColor" stroke-width="8" stroke-linecap="round"/>
    <path d="M100 130v34M74 164h52" stroke="currentColor" stroke-width="8" stroke-linecap="round"/>
    <circle cx="36" cy="150" r="13" fill="currentColor"/>
    <path d="M49 150V96l28-8v54" fill="none" stroke="currentColor" stroke-width="7" stroke-linejoin="round"/>
    <circle cx="164" cy="140" r="13" fill="currentColor"/></g>
  </g>
  <rect width="960" height="600" fill="url(#scrim)"/>
  <rect width="960" height="600" filter="url(#grain)" opacity="0.07"/>
</svg>