<svg xmlns="http://www.w3.org/2000/svg" viewBox="0 0 960 600" width="960" height="600" role="img" aria-label="Reel Lens Film Club cover image">
  <defs>
    <linearGradient id="bg" gradientTransform="rotate(50)">
      <stop offset="0%" stop-color="#284085"/>
      <stop offset="100%" stop-color="#101935"/>
    </linearGradient>
    <radialGradient id="glow" cx="50%" cy="50%" r="50%">
      <stop offset="0%" stop-color="#7588bd" stop-opacity="0.6"/>
      <stop offset="100%" stop-color="#7588bd" stop-opacity="0"/>
    </radialGradient>
    <linearGradient id="scrim" x1="0" y1="0" x2="0" y2="1">
      <stop offset="40%" stop-color="#000" stop-opacity="0"/>
      <stop offset="100%" stop-color="#000" stop-opacity="0.55"/>
    </linearGradient>
    <filter id="grain">
      <feTurbulence type="fractalNoise" baseFrequency="0.85" numOctaves="3" seed="35"/>
      <feColorMatrix type="saturate" values="0"/>
    </filter>
  </defs>
  <rect width="960" height="600" fill="url(#bg)"/>
  <ellipse cx="531" cy="192" rx="528" ry="390" fill="url(#glow)"/>
  <g><circle cx="308" cy="351" r="254" fill="none" stroke="#7588bd" stroke-width="1.6" opacity="0.18"/><circle cx="556" cy="159" r="122" fill="none" stroke="#7588bd" stroke-width="1.2" opacity="0.27"/><circle cx="207" cy="441" r="67" fill="none" stroke="#7588bd" stroke-width="3.9" opacity="0.27"/><circle cx="515" cy="274" r="148" fill="none" stroke="#7588bd" stroke-width="1.4" opacity="0.25"/><circle cx="363" cy="225" r="153" fill="none" stroke="#7588bd" stroke-width="2.2" opacity="0.22"/><circle cx="248" cy="444" r="83" fill="none" stroke="#7588bd" stroke-width="2.8" opacity="0.25"/><circle cx="557" cy="409" r="159" fill="none" stroke="#7588bd" stroke-width="1.4" opacity="0.28"/></g>
  <g transform="translate(489 66) scale(2.580) rotate(2.2 100 100)">
    <g color="#000" opacity=".16" transform="translate(5 7)">
    <rect x="22" y="70" width="112" height="84" rx="10" fill="none" stroke="currentColor" stroke-width="8"/>
    <path d="M134 100l44-24v84l-44-24z" fill="none" stroke="currentColor" stroke-width="8" stroke-linejoin="round"/>
    <rect x="30" y="38" width="112" height="26" rx="6" fill="currentColor" transform="rotate(-9 86 51)"/>
    <path d="M44 34l10 26M74 30l10 26M104 26l10 26" stroke="#000" stroke-opacity=".3" stroke-width="5"/></g>
    <g color="#FFFFFF" opacity=".22">
    <rect x="22" y="70" width="112" height="84" rx="10" fill="none" stroke="currentColor" stroke-width="8"/>
    <path d="M134 100l44-24v84l-44-24z" fill="none" stroke="currentColor" stroke-width="8" stroke-linejoin="round"/>
    <rect x="30" y="38" width="112" height="26" rx="6" fill="currentColor" transform="rotate(-9 86 51)"/>
    <path d="M44 34l10 26M74 30l10 26M104 26l10 26" stroke="#000" stroke-opacity=".3" stroke-width="5"/></g>
  </g>
  <rect width="960" height="600" fill="url(#scrim)"/>
  <rect width="960" height="600" filter="url(#grain)" opacity="0.07"/>
</svg>